<?xml version="1.0" encoding="UTF-8"?>
<svg xmlns="http://www.w3.org/2000/svg" width="1050" height="600" viewBox="0 0 1050 600" role="img" aria-labelledby="title desc">
  <title id="title">Davide Solla Photography QR business card</title>
  <desc id="desc">A dark cinematic business card with contact details and a QR code linking to https://www.davidesolla.com/.</desc>
  <defs>
    <clipPath id="photoClip"><rect x="0" y="0" width="1050" height="600" rx="26"/></clipPath>
    <linearGradient id="shade" x1="0" x2="1" y1="0" y2="0">
      <stop offset="0" stop-color="#030303" stop-opacity="0.96"/>
      <stop offset="0.42" stop-color="#030303" stop-opacity="0.88"/>
      <stop offset="0.72" stop-color="#030303" stop-opacity="0.62"/>
      <stop offset="1" stop-color="#030303" stop-opacity="0.92"/>
    </linearGradient>
    <linearGradient id="edge" x1="0" x2="1" y1="0" y2="1">
      <stop offset="0" stop-color="#48d7df" stop-opacity="0.85"/>
      <stop offset="0.52" stop-color="#f5f3ee" stop-opacity="0.2"/>
      <stop offset="1" stop-color="#e33b42" stop-opacity="0.88"/>
    </linearGradient>
    <filter id="lift" x="-20%" y="-20%" width="140%" height="140%">
      <feDropShadow dx="0" dy="18" stdDeviation="24" flood-color="#000000" flood-opacity="0.45"/>
    </filter>
  </defs>
  <rect width="1050" height="600" rx="26" fill="#030303"/>
  <g clip-path="url(#photoClip)">
    <image href="../images/hero-cosmic-girl.jpg" x="366" y="-22" width="760" height="594" preserveAspectRatio="xMidYMid slice" opacity="0.72"/>
    <rect width="1050" height="600" fill="url(#shade)"/>
    <path d="M0 0H1050V600H0Z" fill="none" stroke="rgba(245,243,238,0.2)" stroke-width="2"/>
    <path d="M40 46H670" stroke="#48d7df" stroke-width="2" stroke-opacity="0.88"/>
    <path d="M40 552H1010" stroke="#e33b42" stroke-width="2" stroke-opacity="0.84"/>
    <path d="M628 0L470 600" stroke="#48d7df" stroke-width="1" stroke-opacity="0.35"/>
    <path d="M652 0L494 600" stroke="#e33b42" stroke-width="1" stroke-opacity="0.42"/>
  </g>

  <g fill="#f5f3ee">
    <text x="58" y="96" font-family="Avenir Next, Helvetica Neue, Arial, sans-serif" font-size="19" font-weight="800" letter-spacing="2.2">LONDON FASHION &amp; EDITORIAL PHOTOGRAPHER</text>
    <text x="56" y="202" font-family="Didot, Bodoni 72, Baskerville, Times New Roman, serif" font-size="86" font-weight="400" letter-spacing="1">DAVIDE</text>
    <text x="56" y="284" font-family="Didot, Bodoni 72, Baskerville, Times New Roman, serif" font-size="86" font-weight="400" letter-spacing="1">SOLLA</text>
    <text x="60" y="332" font-family="Avenir Next, Helvetica Neue, Arial, sans-serif" font-size="22" fill="#cfcac1">Cinematic fashion, beauty, portrait and fine-art photography.</text>
  </g>

  <g font-family="Avenir Next, Helvetica Neue, Arial, sans-serif" font-size="23" fill="#f5f3ee">
    <text x="60" y="424">+44 (0) 7493429959</text>
    <text x="60" y="462">davidesolla@outlook.it</text>
    <text x="60" y="500">@davide.studios</text>
    <text x="60" y="538">davidesolla.com</text>
  </g>

  <g filter="url(#lift)">
    <rect x="682" y="144" width="356" height="392" rx="18" fill="#f5f3ee"/>
    <rect x="702" y="164" width="316" height="316" rx="8" fill="#f5f3ee"/>
    <g fill="#030303"><rect x="742.488" y="204.488" width="7.122" height="7.122"/><rect x="749.610" y="204.488" width="7.122" height="7.122"/><rect x="756.732" y="204.488" width="7.122" height="7.122"/><rect x="763.854" y="204.488" width="7.122" height="7.122"/><rect x="770.976" y="204.488" width="7.122" height="7.122"/><rect x="778.098" y="204.488" width="7.122" height="7.122"/><rect x="785.220" y="204.488" width="7.122" height="7.122"/><rect x="806.585" y="204.488" width="7.122" height="7.122"/><rect x="820.829" y="204.488" width="7.122" height="7.122"/><rect x="827.951" y="204.488" width="7.122" height="7.122"/><rect x="842.195" y="204.488" width="7.122" height="7.122"/><rect x="856.439" y="204.488" width="7.122" height="7.122"/><rect x="870.683" y="204.488" width="7.122" height="7.122"/><rect x="877.805" y="204.488" width="7.122" height="7.122"/><rect x="884.927" y="204.488" width="7.122" height="7.122"/><rect x="892.049" y="204.488" width="7.122" height="7.122"/><rect x="899.171" y="204.488" width="7.122" height="7.122"/><rect x="913.415" y="204.488" width="7.122" height="7.122"/><rect x="927.659" y="204.488" width="7.122" height="7.122"/><rect x="934.780" y="204.488" width="7.122" height="7.122"/><rect x="941.902" y="204.488" width="7.122" height="7.122"/><rect x="949.024" y="204.488" width="7.122" height="7.122"/><rect x="956.146" y="204.488" width="7.122" height="7.122"/><rect x="963.268" y="204.488" width="7.122" height="7.122"/><rect x="970.390" y="204.488" width="7.122" height="7.122"/><rect x="742.488" y="211.610" width="7.122" height="7.122"/><rect x="785.220" y="211.610" width="7.122" height="7.122"/><rect x="799.463" y="211.610" width="7.122" height="7.122"/><rect x="820.829" y="211.610" width="7.122" height="7.122"/><rect x="842.195" y="211.610" width="7.122" height="7.122"/><rect x="870.683" y="211.610" width="7.122" height="7.122"/><rect x="877.805" y="211.610" width="7.122" height="7.122"/><rect x="892.049" y="211.610" width="7.122" height="7.122"/><rect x="899.171" y="211.610" width="7.122" height="7.122"/><rect x="927.659" y="211.610" width="7.122" height="7.122"/><rect x="970.390" y="211.610" width="7.122" height="7.122"/><rect x="742.488" y="218.732" width="7.122" height="7.122"/><rect x="756.732" y="218.732" width="7.122" height="7.122"/><rect x="763.854" y="218.732" width="7.122" height="7.122"/><rect x="770.976" y="218.732" width="7.122" height="7.122"/><rect x="785.220" y="218.732" width="7.122" height="7.122"/><rect x="799.463" y="218.732" width="7.122" height="7.122"/><rect x="806.585" y="218.732" width="7.122" height="7.122"/><rect x="813.707" y="218.732" width="7.122" height="7.122"/><rect x="835.073" y="218.732" width="7.122" height="7.122"/><rect x="842.195" y="218.732" width="7.122" height="7.122"/><rect x="849.317" y="218.732" width="7.122" height="7.122"/><rect x="856.439" y="218.732" width="7.122" height="7.122"/><rect x="863.561" y="218.732" width="7.122" height="7.122"/><rect x="877.805" y="218.732" width="7.122" height="7.122"/><rect x="892.049" y="218.732" width="7.122" height="7.122"/><rect x="899.171" y="218.732" width="7.122" height="7.122"/><rect x="913.415" y="218.732" width="7.122" height="7.122"/><rect x="927.659" y="218.732" width="7.122" height="7.122"/><rect x="941.902" y="218.732" width="7.122" height="7.122"/><rect x="949.024" y="218.732" width="7.122" height="7.122"/><rect x="956.146" y="218.732" width="7.122" height="7.122"/><rect x="970.390" y="218.732" width="7.122" height="7.122"/><rect x="742.488" y="225.854" width="7.122" height="7.122"/><rect x="756.732" y="225.854" width="7.122" height="7.122"/><rect x="763.854" y="225.854" width="7.122" height="7.122"/><rect x="770.976" y="225.854" width="7.122" height="7.122"/><rect x="785.220" y="225.854" width="7.122" height="7.122"/><rect x="799.463" y="225.854" width="7.122" height="7.122"/><rect x="806.585" y="225.854" width="7.122" height="7.122"/><rect x="835.073" y="225.854" width="7.122" height="7.122"/><rect x="849.317" y="225.854" width="7.122" height="7.122"/><rect x="863.561" y="225.854" width="7.122" height="7.122"/><rect x="877.805" y="225.854" width="7.122" height="7.122"/><rect x="892.049" y="225.854" width="7.122" height="7.122"/><rect x="899.171" y="225.854" width="7.122" height="7.122"/><rect x="906.293" y="225.854" width="7.122" height="7.122"/><rect x="913.415" y="225.854" width="7.122" height="7.122"/><rect x="927.659" y="225.854" width="7.122" height="7.122"/><rect x="941.902" y="225.854" width="7.122" height="7.122"/><rect x="949.024" y="225.854" width="7.122" height="7.122"/><rect x="956.146" y="225.854" width="7.122" height="7.122"/><rect x="970.390" y="225.854" width="7.122" height="7.122"/><rect x="742.488" y="232.976" width="7.122" height="7.122"/><rect x="756.732" y="232.976" width="7.122" height="7.122"/><rect x="763.854" y="232.976" width="7.122" height="7.122"/><rect x="770.976" y="232.976" width="7.122" height="7.122"/><rect x="785.220" y="232.976" width="7.122" height="7.122"/><rect x="799.463" y="232.976" width="7.122" height="7.122"/><rect x="806.585" y="232.976" width="7.122" height="7.122"/><rect x="820.829" y="232.976" width="7.122" height="7.122"/><rect x="835.073" y="232.976" width="7.122" height="7.122"/><rect x="842.195" y="232.976" width="7.122" height="7.122"/><rect x="849.317" y="232.976" width="7.122" height="7.122"/><rect x="856.439" y="232.976" width="7.122" height="7.122"/><rect x="870.683" y="232.976" width="7.122" height="7.122"/><rect x="877.805" y="232.976" width="7.122" height="7.122"/><rect x="899.171" y="232.976" width="7.122" height="7.122"/><rect x="906.293" y="232.976" width="7.122" height="7.122"/><rect x="913.415" y="232.976" width="7.122" height="7.122"/><rect x="927.659" y="232.976" width="7.122" height="7.122"/><rect x="941.902" y="232.976" width="7.122" height="7.122"/><rect x="949.024" y="232.976" width="7.122" height="7.122"/><rect x="956.146" y="232.976" width="7.122" height="7.122"/><rect x="970.390" y="232.976" width="7.122" height="7.122"/><rect x="742.488" y="240.098" width="7.122" height="7.122"/><rect x="785.220" y="240.098" width="7.122" height="7.122"/><rect x="799.463" y="240.098" width="7.122" height="7.122"/><rect x="806.585" y="240.098" width="7.122" height="7.122"/><rect x="813.707" y="240.098" width="7.122" height="7.122"/><rect x="849.317" y="240.098" width="7.122" height="7.122"/><rect x="870.683" y="240.098" width="7.122" height="7.122"/><rect x="892.049" y="240.098" width="7.122" height="7.122"/><rect x="899.171" y="240.098" width="7.122" height="7.122"/><rect x="913.415" y="240.098" width="7.122" height="7.122"/><rect x="927.659" y="240.098" width="7.122" height="7.122"/><rect x="970.390" y="240.098" width="7.122" height="7.122"/><rect x="742.488" y="247.220" width="7.122" height="7.122"/><rect x="749.610" y="247.220" width="7.122" height="7.122"/><rect x="756.732" y="247.220" width="7.122" height="7.122"/><rect x="763.854" y="247.220" width="7.122" height="7.122"/><rect x="770.976" y="247.220" width="7.122" height="7.122"/><rect x="778.098" y="247.220" width="7.122" height="7.122"/><rect x="785.220" y="247.220" width="7.122" height="7.122"/><rect x="799.463" y="247.220" width="7.122" height="7.122"/><rect x="813.707" y="247.220" width="7.122" height="7.122"/><rect x="827.951" y="247.220" width="7.122" height="7.122"/><rect x="842.195" y="247.220" width="7.122" height="7.122"/><rect x="856.439" y="247.220" width="7.122" height="7.122"/><rect x="870.683" y="247.220" width="7.122" height="7.122"/><rect x="884.927" y="247.220" width="7.122" height="7.122"/><rect x="899.171" y="247.220" width="7.122" height="7.122"/><rect x="913.415" y="247.220" width="7.122" height="7.122"/><rect x="927.659" y="247.220" width="7.122" height="7.122"/><rect x="934.780" y="247.220" width="7.122" height="7.122"/><rect x="941.902" y="247.220" width="7.122" height="7.122"/><rect x="949.024" y="247.220" width="7.122" height="7.122"/><rect x="956.146" y="247.220" width="7.122" height="7.122"/><rect x="963.268" y="247.220" width="7.122" height="7.122"/><rect x="970.390" y="247.220" width="7.122" height="7.122"/><rect x="806.585" y="254.341" width="7.122" height="7.122"/><rect x="813.707" y="254.341" width="7.122" height="7.122"/><rect x="827.951" y="254.341" width="7.122" height="7.122"/><rect x="835.073" y="254.341" width="7.122" height="7.122"/><rect x="870.683" y="254.341" width="7.122" height="7.122"/><rect x="877.805" y="254.341" width="7.122" height="7.122"/><rect x="756.732" y="261.463" width="7.122" height="7.122"/><rect x="778.098" y="261.463" width="7.122" height="7.122"/><rect x="785.220" y="261.463" width="7.122" height="7.122"/><rect x="792.341" y="261.463" width="7.122" height="7.122"/><rect x="799.463" y="261.463" width="7.122" height="7.122"/><rect x="813.707" y="261.463" width="7.122" height="7.122"/><rect x="835.073" y="261.463" width="7.122" height="7.122"/><rect x="842.195" y="261.463" width="7.122" height="7.122"/><rect x="856.439" y="261.463" width="7.122" height="7.122"/><rect x="863.561" y="261.463" width="7.122" height="7.122"/><rect x="877.805" y="261.463" width="7.122" height="7.122"/><rect x="906.293" y="261.463" width="7.122" height="7.122"/><rect x="913.415" y="261.463" width="7.122" height="7.122"/><rect x="920.537" y="261.463" width="7.122" height="7.122"/><rect x="934.780" y="261.463" width="7.122" height="7.122"/><rect x="941.902" y="261.463" width="7.122" height="7.122"/><rect x="949.024" y="261.463" width="7.122" height="7.122"/><rect x="956.146" y="261.463" width="7.122" height="7.122"/><rect x="963.268" y="261.463" width="7.122" height="7.122"/><rect x="742.488" y="268.585" width="7.122" height="7.122"/><rect x="756.732" y="268.585" width="7.122" height="7.122"/><rect x="763.854" y="268.585" width="7.122" height="7.122"/><rect x="770.976" y="268.585" width="7.122" height="7.122"/><rect x="778.098" y="268.585" width="7.122" height="7.122"/><rect x="806.585" y="268.585" width="7.122" height="7.122"/><rect x="813.707" y="268.585" width="7.122" height="7.122"/><rect x="820.829" y="268.585" width="7.122" height="7.122"/><rect x="835.073" y="268.585" width="7.122" height="7.122"/><rect x="863.561" y="268.585" width="7.122" height="7.122"/><rect x="870.683" y="268.585" width="7.122" height="7.122"/><rect x="892.049" y="268.585" width="7.122" height="7.122"/><rect x="906.293" y="268.585" width="7.122" height="7.122"/><rect x="920.537" y="268.585" width="7.122" height="7.122"/><rect x="927.659" y="268.585" width="7.122" height="7.122"/><rect x="934.780" y="268.585" width="7.122" height="7.122"/><rect x="949.024" y="268.585" width="7.122" height="7.122"/><rect x="963.268" y="268.585" width="7.122" height="7.122"/><rect x="970.390" y="268.585" width="7.122" height="7.122"/><rect x="742.488" y="275.707" width="7.122" height="7.122"/><rect x="749.610" y="275.707" width="7.122" height="7.122"/><rect x="756.732" y="275.707" width="7.122" height="7.122"/><rect x="785.220" y="275.707" width="7.122" height="7.122"/><rect x="799.463" y="275.707" width="7.122" height="7.122"/><rect x="806.585" y="275.707" width="7.122" height="7.122"/><rect x="842.195" y="275.707" width="7.122" height="7.122"/><rect x="849.317" y="275.707" width="7.122" height="7.122"/><rect x="863.561" y="275.707" width="7.122" height="7.122"/><rect x="870.683" y="275.707" width="7.122" height="7.122"/><rect x="906.293" y="275.707" width="7.122" height="7.122"/><rect x="934.780" y="275.707" width="7.122" height="7.122"/><rect x="941.902" y="275.707" width="7.122" height="7.122"/><rect x="956.146" y="275.707" width="7.122" height="7.122"/><rect x="970.390" y="275.707" width="7.122" height="7.122"/><rect x="742.488" y="282.829" width="7.122" height="7.122"/><rect x="749.610" y="282.829" width="7.122" height="7.122"/><rect x="763.854" y="282.829" width="7.122" height="7.122"/><rect x="778.098" y="282.829" width="7.122" height="7.122"/><rect x="792.341" y="282.829" width="7.122" height="7.122"/><rect x="806.585" y="282.829" width="7.122" height="7.122"/><rect x="813.707" y="282.829" width="7.122" height="7.122"/><rect x="820.829" y="282.829" width="7.122" height="7.122"/><rect x="827.951" y="282.829" width="7.122" height="7.122"/><rect x="835.073" y="282.829" width="7.122" height="7.122"/><rect x="849.317" y="282.829" width="7.122" height="7.122"/><rect x="884.927" y="282.829" width="7.122" height="7.122"/><rect x="892.049" y="282.829" width="7.122" height="7.122"/><rect x="927.659" y="282.829" width="7.122" height="7.122"/><rect x="934.780" y="282.829" width="7.122" height="7.122"/><rect x="949.024" y="282.829" width="7.122" height="7.122"/><rect x="963.268" y="282.829" width="7.122" height="7.122"/><rect x="970.390" y="282.829" width="7.122" height="7.122"/><rect x="749.610" y="289.951" width="7.122" height="7.122"/><rect x="756.732" y="289.951" width="7.122" height="7.122"/><rect x="778.098" y="289.951" width="7.122" height="7.122"/><rect x="785.220" y="289.951" width="7.122" height="7.122"/><rect x="792.341" y="289.951" width="7.122" height="7.122"/><rect x="827.951" y="289.951" width="7.122" height="7.122"/><rect x="835.073" y="289.951" width="7.122" height="7.122"/><rect x="842.195" y="289.951" width="7.122" height="7.122"/><rect x="849.317" y="289.951" width="7.122" height="7.122"/><rect x="863.561" y="289.951" width="7.122" height="7.122"/><rect x="870.683" y="289.951" width="7.122" height="7.122"/><rect x="877.805" y="289.951" width="7.122" height="7.122"/><rect x="884.927" y="289.951" width="7.122" height="7.122"/><rect x="892.049" y="289.951" width="7.122" height="7.122"/><rect x="906.293" y="289.951" width="7.122" height="7.122"/><rect x="927.659" y="289.951" width="7.122" height="7.122"/><rect x="934.780" y="289.951" width="7.122" height="7.122"/><rect x="941.902" y="289.951" width="7.122" height="7.122"/><rect x="970.390" y="289.951" width="7.122" height="7.122"/><rect x="742.488" y="297.073" width="7.122" height="7.122"/><rect x="749.610" y="297.073" width="7.122" height="7.122"/><rect x="763.854" y="297.073" width="7.122" height="7.122"/><rect x="792.341" y="297.073" width="7.122" height="7.122"/><rect x="806.585" y="297.073" width="7.122" height="7.122"/><rect x="813.707" y="297.073" width="7.122" height="7.122"/><rect x="820.829" y="297.073" width="7.122" height="7.122"/><rect x="827.951" y="297.073" width="7.122" height="7.122"/><rect x="835.073" y="297.073" width="7.122" height="7.122"/><rect x="842.195" y="297.073" width="7.122" height="7.122"/><rect x="849.317" y="297.073" width="7.122" height="7.122"/><rect x="856.439" y="297.073" width="7.122" height="7.122"/><rect x="870.683" y="297.073" width="7.122" height="7.122"/><rect x="892.049" y="297.073" width="7.122" height="7.122"/><rect x="906.293" y="297.073" width="7.122" height="7.122"/><rect x="913.415" y="297.073" width="7.122" height="7.122"/><rect x="927.659" y="297.073" width="7.122" height="7.122"/><rect x="934.780" y="297.073" width="7.122" height="7.122"/><rect x="941.902" y="297.073" width="7.122" height="7.122"/><rect x="949.024" y="297.073" width="7.122" height="7.122"/><rect x="956.146" y="297.073" width="7.122" height="7.122"/><rect x="970.390" y="297.073" width="7.122" height="7.122"/><rect x="742.488" y="304.195" width="7.122" height="7.122"/><rect x="749.610" y="304.195" width="7.122" height="7.122"/><rect x="763.854" y="304.195" width="7.122" height="7.122"/><rect x="778.098" y="304.195" width="7.122" height="7.122"/><rect x="785.220" y="304.195" width="7.122" height="7.122"/><rect x="799.463" y="304.195" width="7.122" height="7.122"/><rect x="806.585" y="304.195" width="7.122" height="7.122"/><rect x="827.951" y="304.195" width="7.122" height="7.122"/><rect x="835.073" y="304.195" width="7.122" height="7.122"/><rect x="842.195" y="304.195" width="7.122" height="7.122"/><rect x="849.317" y="304.195" width="7.122" height="7.122"/><rect x="863.561" y="304.195" width="7.122" height="7.122"/><rect x="877.805" y="304.195" width="7.122" height="7.122"/><rect x="906.293" y="304.195" width="7.122" height="7.122"/><rect x="934.780" y="304.195" width="7.122" height="7.122"/><rect x="956.146" y="304.195" width="7.122" height="7.122"/><rect x="970.390" y="304.195" width="7.122" height="7.122"/><rect x="749.610" y="311.317" width="7.122" height="7.122"/><rect x="799.463" y="311.317" width="7.122" height="7.122"/><rect x="806.585" y="311.317" width="7.122" height="7.122"/><rect x="813.707" y="311.317" width="7.122" height="7.122"/><rect x="827.951" y="311.317" width="7.122" height="7.122"/><rect x="849.317" y="311.317" width="7.122" height="7.122"/><rect x="856.439" y="311.317" width="7.122" height="7.122"/><rect x="870.683" y="311.317" width="7.122" height="7.122"/><rect x="877.805" y="311.317" width="7.122" height="7.122"/><rect x="884.927" y="311.317" width="7.122" height="7.122"/><rect x="899.171" y="311.317" width="7.122" height="7.122"/><rect x="934.780" y="311.317" width="7.122" height="7.122"/><rect x="941.902" y="311.317" width="7.122" height="7.122"/><rect x="742.488" y="318.439" width="7.122" height="7.122"/><rect x="756.732" y="318.439" width="7.122" height="7.122"/><rect x="763.854" y="318.439" width="7.122" height="7.122"/><rect x="770.976" y="318.439" width="7.122" height="7.122"/><rect x="785.220" y="318.439" width="7.122" height="7.122"/><rect x="792.341" y="318.439" width="7.122" height="7.122"/><rect x="806.585" y="318.439" width="7.122" height="7.122"/><rect x="813.707" y="318.439" width="7.122" height="7.122"/><rect x="820.829" y="318.439" width="7.122" height="7.122"/><rect x="835.073" y="318.439" width="7.122" height="7.122"/><rect x="856.439" y="318.439" width="7.122" height="7.122"/><rect x="884.927" y="318.439" width="7.122" height="7.122"/><rect x="899.171" y="318.439" width="7.122" height="7.122"/><rect x="906.293" y="318.439" width="7.122" height="7.122"/><rect x="927.659" y="318.439" width="7.122" height="7.122"/><rect x="934.780" y="318.439" width="7.122" height="7.122"/><rect x="949.024" y="318.439" width="7.122" height="7.122"/><rect x="756.732" y="325.561" width="7.122" height="7.122"/><rect x="778.098" y="325.561" width="7.122" height="7.122"/><rect x="792.341" y="325.561" width="7.122" height="7.122"/><rect x="799.463" y="325.561" width="7.122" height="7.122"/><rect x="806.585" y="325.561" width="7.122" height="7.122"/><rect x="820.829" y="325.561" width="7.122" height="7.122"/><rect x="835.073" y="325.561" width="7.122" height="7.122"/><rect x="849.317" y="325.561" width="7.122" height="7.122"/><rect x="870.683" y="325.561" width="7.122" height="7.122"/><rect x="877.805" y="325.561" width="7.122" height="7.122"/><rect x="884.927" y="325.561" width="7.122" height="7.122"/><rect x="892.049" y="325.561" width="7.122" height="7.122"/><rect x="906.293" y="325.561" width="7.122" height="7.122"/><rect x="927.659" y="325.561" width="7.122" height="7.122"/><rect x="934.780" y="325.561" width="7.122" height="7.122"/><rect x="956.146" y="325.561" width="7.122" height="7.122"/><rect x="970.390" y="325.561" width="7.122" height="7.122"/><rect x="749.610" y="332.683" width="7.122" height="7.122"/><rect x="756.732" y="332.683" width="7.122" height="7.122"/><rect x="763.854" y="332.683" width="7.122" height="7.122"/><rect x="770.976" y="332.683" width="7.122" height="7.122"/><rect x="785.220" y="332.683" width="7.122" height="7.122"/><rect x="799.463" y="332.683" width="7.122" height="7.122"/><rect x="806.585" y="332.683" width="7.122" height="7.122"/><rect x="820.829" y="332.683" width="7.122" height="7.122"/><rect x="856.439" y="332.683" width="7.122" height="7.122"/><rect x="863.561" y="332.683" width="7.122" height="7.122"/><rect x="892.049" y="332.683" width="7.122" height="7.122"/><rect x="899.171" y="332.683" width="7.122" height="7.122"/><rect x="906.293" y="332.683" width="7.122" height="7.122"/><rect x="920.537" y="332.683" width="7.122" height="7.122"/><rect x="927.659" y="332.683" width="7.122" height="7.122"/><rect x="949.024" y="332.683" width="7.122" height="7.122"/><rect x="956.146" y="332.683" width="7.122" height="7.122"/><rect x="970.390" y="332.683" width="7.122" height="7.122"/><rect x="742.488" y="339.805" width="7.122" height="7.122"/><rect x="756.732" y="339.805" width="7.122" height="7.122"/><rect x="770.976" y="339.805" width="7.122" height="7.122"/><rect x="792.341" y="339.805" width="7.122" height="7.122"/><rect x="799.463" y="339.805" width="7.122" height="7.122"/><rect x="820.829" y="339.805" width="7.122" height="7.122"/><rect x="835.073" y="339.805" width="7.122" height="7.122"/><rect x="849.317" y="339.805" width="7.122" height="7.122"/><rect x="863.561" y="339.805" width="7.122" height="7.122"/><rect x="870.683" y="339.805" width="7.122" height="7.122"/><rect x="899.171" y="339.805" width="7.122" height="7.122"/><rect x="906.293" y="339.805" width="7.122" height="7.122"/><rect x="920.537" y="339.805" width="7.122" height="7.122"/><rect x="934.780" y="339.805" width="7.122" height="7.122"/><rect x="941.902" y="339.805" width="7.122" height="7.122"/><rect x="949.024" y="339.805" width="7.122" height="7.122"/><rect x="963.268" y="339.805" width="7.122" height="7.122"/><rect x="970.390" y="339.805" width="7.122" height="7.122"/><rect x="749.610" y="346.927" width="7.122" height="7.122"/><rect x="756.732" y="346.927" width="7.122" height="7.122"/><rect x="763.854" y="346.927" width="7.122" height="7.122"/><rect x="770.976" y="346.927" width="7.122" height="7.122"/><rect x="785.220" y="346.927" width="7.122" height="7.122"/><rect x="799.463" y="346.927" width="7.122" height="7.122"/><rect x="813.707" y="346.927" width="7.122" height="7.122"/><rect x="827.951" y="346.927" width="7.122" height="7.122"/><rect x="835.073" y="346.927" width="7.122" height="7.122"/><rect x="842.195" y="346.927" width="7.122" height="7.122"/><rect x="856.439" y="346.927" width="7.122" height="7.122"/><rect x="863.561" y="346.927" width="7.122" height="7.122"/><rect x="870.683" y="346.927" width="7.122" height="7.122"/><rect x="884.927" y="346.927" width="7.122" height="7.122"/><rect x="906.293" y="346.927" width="7.122" height="7.122"/><rect x="913.415" y="346.927" width="7.122" height="7.122"/><rect x="920.537" y="346.927" width="7.122" height="7.122"/><rect x="927.659" y="346.927" width="7.122" height="7.122"/><rect x="934.780" y="346.927" width="7.122" height="7.122"/><rect x="749.610" y="354.049" width="7.122" height="7.122"/><rect x="770.976" y="354.049" width="7.122" height="7.122"/><rect x="792.341" y="354.049" width="7.122" height="7.122"/><rect x="806.585" y="354.049" width="7.122" height="7.122"/><rect x="820.829" y="354.049" width="7.122" height="7.122"/><rect x="842.195" y="354.049" width="7.122" height="7.122"/><rect x="849.317" y="354.049" width="7.122" height="7.122"/><rect x="856.439" y="354.049" width="7.122" height="7.122"/><rect x="913.415" y="354.049" width="7.122" height="7.122"/><rect x="920.537" y="354.049" width="7.122" height="7.122"/><rect x="949.024" y="354.049" width="7.122" height="7.122"/><rect x="970.390" y="354.049" width="7.122" height="7.122"/><rect x="742.488" y="361.171" width="7.122" height="7.122"/><rect x="749.610" y="361.171" width="7.122" height="7.122"/><rect x="756.732" y="361.171" width="7.122" height="7.122"/><rect x="770.976" y="361.171" width="7.122" height="7.122"/><rect x="778.098" y="361.171" width="7.122" height="7.122"/><rect x="785.220" y="361.171" width="7.122" height="7.122"/><rect x="792.341" y="361.171" width="7.122" height="7.122"/><rect x="813.707" y="361.171" width="7.122" height="7.122"/><rect x="849.317" y="361.171" width="7.122" height="7.122"/><rect x="856.439" y="361.171" width="7.122" height="7.122"/><rect x="863.561" y="361.171" width="7.122" height="7.122"/><rect x="870.683" y="361.171" width="7.122" height="7.122"/><rect x="877.805" y="361.171" width="7.122" height="7.122"/><rect x="884.927" y="361.171" width="7.122" height="7.122"/><rect x="899.171" y="361.171" width="7.122" height="7.122"/><rect x="913.415" y="361.171" width="7.122" height="7.122"/><rect x="920.537" y="361.171" width="7.122" height="7.122"/><rect x="927.659" y="361.171" width="7.122" height="7.122"/><rect x="970.390" y="361.171" width="7.122" height="7.122"/><rect x="763.854" y="368.293" width="7.122" height="7.122"/><rect x="799.463" y="368.293" width="7.122" height="7.122"/><rect x="835.073" y="368.293" width="7.122" height="7.122"/><rect x="884.927" y="368.293" width="7.122" height="7.122"/><rect x="899.171" y="368.293" width="7.122" height="7.122"/><rect x="906.293" y="368.293" width="7.122" height="7.122"/><rect x="913.415" y="368.293" width="7.122" height="7.122"/><rect x="934.780" y="368.293" width="7.122" height="7.122"/><rect x="949.024" y="368.293" width="7.122" height="7.122"/><rect x="742.488" y="375.415" width="7.122" height="7.122"/><rect x="749.610" y="375.415" width="7.122" height="7.122"/><rect x="763.854" y="375.415" width="7.122" height="7.122"/><rect x="770.976" y="375.415" width="7.122" height="7.122"/><rect x="778.098" y="375.415" width="7.122" height="7.122"/><rect x="785.220" y="375.415" width="7.122" height="7.122"/><rect x="792.341" y="375.415" width="7.122" height="7.122"/><rect x="799.463" y="375.415" width="7.122" height="7.122"/><rect x="842.195" y="375.415" width="7.122" height="7.122"/><rect x="856.439" y="375.415" width="7.122" height="7.122"/><rect x="863.561" y="375.415" width="7.122" height="7.122"/><rect x="877.805" y="375.415" width="7.122" height="7.122"/><rect x="913.415" y="375.415" width="7.122" height="7.122"/><rect x="920.537" y="375.415" width="7.122" height="7.122"/><rect x="927.659" y="375.415" width="7.122" height="7.122"/><rect x="934.780" y="375.415" width="7.122" height="7.122"/><rect x="941.902" y="375.415" width="7.122" height="7.122"/><rect x="970.390" y="375.415" width="7.122" height="7.122"/><rect x="799.463" y="382.537" width="7.122" height="7.122"/><rect x="806.585" y="382.537" width="7.122" height="7.122"/><rect x="835.073" y="382.537" width="7.122" height="7.122"/><rect x="842.195" y="382.537" width="7.122" height="7.122"/><rect x="863.561" y="382.537" width="7.122" height="7.122"/><rect x="877.805" y="382.537" width="7.122" height="7.122"/><rect x="913.415" y="382.537" width="7.122" height="7.122"/><rect x="941.902" y="382.537" width="7.122" height="7.122"/><rect x="963.268" y="382.537" width="7.122" height="7.122"/><rect x="970.390" y="382.537" width="7.122" height="7.122"/><rect x="742.488" y="389.659" width="7.122" height="7.122"/><rect x="749.610" y="389.659" width="7.122" height="7.122"/><rect x="756.732" y="389.659" width="7.122" height="7.122"/><rect x="763.854" y="389.659" width="7.122" height="7.122"/><rect x="770.976" y="389.659" width="7.122" height="7.122"/><rect x="778.098" y="389.659" width="7.122" height="7.122"/><rect x="785.220" y="389.659" width="7.122" height="7.122"/><rect x="799.463" y="389.659" width="7.122" height="7.122"/><rect x="806.585" y="389.659" width="7.122" height="7.122"/><rect x="813.707" y="389.659" width="7.122" height="7.122"/><rect x="820.829" y="389.659" width="7.122" height="7.122"/><rect x="835.073" y="389.659" width="7.122" height="7.122"/><rect x="849.317" y="389.659" width="7.122" height="7.122"/><rect x="863.561" y="389.659" width="7.122" height="7.122"/><rect x="870.683" y="389.659" width="7.122" height="7.122"/><rect x="877.805" y="389.659" width="7.122" height="7.122"/><rect x="892.049" y="389.659" width="7.122" height="7.122"/><rect x="899.171" y="389.659" width="7.122" height="7.122"/><rect x="913.415" y="389.659" width="7.122" height="7.122"/><rect x="927.659" y="389.659" width="7.122" height="7.122"/><rect x="941.902" y="389.659" width="7.122" height="7.122"/><rect x="970.390" y="389.659" width="7.122" height="7.122"/><rect x="742.488" y="396.780" width="7.122" height="7.122"/><rect x="785.220" y="396.780" width="7.122" height="7.122"/><rect x="799.463" y="396.780" width="7.122" height="7.122"/><rect x="806.585" y="396.780" width="7.122" height="7.122"/><rect x="827.951" y="396.780" width="7.122" height="7.122"/><rect x="835.073" y="396.780" width="7.122" height="7.122"/><rect x="842.195" y="396.780" width="7.122" height="7.122"/><rect x="849.317" y="396.780" width="7.122" height="7.122"/><rect x="856.439" y="396.780" width="7.122" height="7.122"/><rect x="863.561" y="396.780" width="7.122" height="7.122"/><rect x="870.683" y="396.780" width="7.122" height="7.122"/><rect x="877.805" y="396.780" width="7.122" height="7.122"/><rect x="899.171" y="396.780" width="7.122" height="7.122"/><rect x="906.293" y="396.780" width="7.122" height="7.122"/><rect x="913.415" y="396.780" width="7.122" height="7.122"/><rect x="941.902" y="396.780" width="7.122" height="7.122"/><rect x="949.024" y="396.780" width="7.122" height="7.122"/><rect x="963.268" y="396.780" width="7.122" height="7.122"/><rect x="970.390" y="396.780" width="7.122" height="7.122"/><rect x="742.488" y="403.902" width="7.122" height="7.122"/><rect x="756.732" y="403.902" width="7.122" height="7.122"/><rect x="763.854" y="403.902" width="7.122" height="7.122"/><rect x="770.976" y="403.902" width="7.122" height="7.122"/><rect x="785.220" y="403.902" width="7.122" height="7.122"/><rect x="813.707" y="403.902" width="7.122" height="7.122"/><rect x="820.829" y="403.902" width="7.122" height="7.122"/><rect x="827.951" y="403.902" width="7.122" height="7.122"/><rect x="849.317" y="403.902" width="7.122" height="7.122"/><rect x="892.049" y="403.902" width="7.122" height="7.122"/><rect x="899.171" y="403.902" width="7.122" height="7.122"/><rect x="906.293" y="403.902" width="7.122" height="7.122"/><rect x="913.415" y="403.902" width="7.122" height="7.122"/><rect x="920.537" y="403.902" width="7.122" height="7.122"/><rect x="927.659" y="403.902" width="7.122" height="7.122"/><rect x="934.780" y="403.902" width="7.122" height="7.122"/><rect x="941.902" y="403.902" width="7.122" height="7.122"/><rect x="949.024" y="403.902" width="7.122" height="7.122"/><rect x="742.488" y="411.024" width="7.122" height="7.122"/><rect x="756.732" y="411.024" width="7.122" height="7.122"/><rect x="763.854" y="411.024" width="7.122" height="7.122"/><rect x="770.976" y="411.024" width="7.122" height="7.122"/><rect x="785.220" y="411.024" width="7.122" height="7.122"/><rect x="813.707" y="411.024" width="7.122" height="7.122"/><rect x="820.829" y="411.024" width="7.122" height="7.122"/><rect x="827.951" y="411.024" width="7.122" height="7.122"/><rect x="835.073" y="411.024" width="7.122" height="7.122"/><rect x="877.805" y="411.024" width="7.122" height="7.122"/><rect x="884.927" y="411.024" width="7.122" height="7.122"/><rect x="892.049" y="411.024" width="7.122" height="7.122"/><rect x="899.171" y="411.024" width="7.122" height="7.122"/><rect x="920.537" y="411.024" width="7.122" height="7.122"/><rect x="934.780" y="411.024" width="7.122" height="7.122"/><rect x="941.902" y="411.024" width="7.122" height="7.122"/><rect x="949.024" y="411.024" width="7.122" height="7.122"/><rect x="956.146" y="411.024" width="7.122" height="7.122"/><rect x="963.268" y="411.024" width="7.122" height="7.122"/><rect x="742.488" y="418.146" width="7.122" height="7.122"/><rect x="756.732" y="418.146" width="7.122" height="7.122"/><rect x="763.854" y="418.146" width="7.122" height="7.122"/><rect x="770.976" y="418.146" width="7.122" height="7.122"/><rect x="785.220" y="418.146" width="7.122" height="7.122"/><rect x="799.463" y="418.146" width="7.122" height="7.122"/><rect x="806.585" y="418.146" width="7.122" height="7.122"/><rect x="835.073" y="418.146" width="7.122" height="7.122"/><rect x="842.195" y="418.146" width="7.122" height="7.122"/><rect x="856.439" y="418.146" width="7.122" height="7.122"/><rect x="863.561" y="418.146" width="7.122" height="7.122"/><rect x="877.805" y="418.146" width="7.122" height="7.122"/><rect x="899.171" y="418.146" width="7.122" height="7.122"/><rect x="941.902" y="418.146" width="7.122" height="7.122"/><rect x="963.268" y="418.146" width="7.122" height="7.122"/><rect x="970.390" y="418.146" width="7.122" height="7.122"/><rect x="742.488" y="425.268" width="7.122" height="7.122"/><rect x="785.220" y="425.268" width="7.122" height="7.122"/><rect x="806.585" y="425.268" width="7.122" height="7.122"/><rect x="813.707" y="425.268" width="7.122" height="7.122"/><rect x="820.829" y="425.268" width="7.122" height="7.122"/><rect x="827.951" y="425.268" width="7.122" height="7.122"/><rect x="835.073" y="425.268" width="7.122" height="7.122"/><rect x="842.195" y="425.268" width="7.122" height="7.122"/><rect x="856.439" y="425.268" width="7.122" height="7.122"/><rect x="877.805" y="425.268" width="7.122" height="7.122"/><rect x="899.171" y="425.268" width="7.122" height="7.122"/><rect x="913.415" y="425.268" width="7.122" height="7.122"/><rect x="920.537" y="425.268" width="7.122" height="7.122"/><rect x="742.488" y="432.390" width="7.122" height="7.122"/><rect x="749.610" y="432.390" width="7.122" height="7.122"/><rect x="756.732" y="432.390" width="7.122" height="7.122"/><rect x="763.854" y="432.390" width="7.122" height="7.122"/><rect x="770.976" y="432.390" width="7.122" height="7.122"/><rect x="778.098" y="432.390" width="7.122" height="7.122"/><rect x="785.220" y="432.390" width="7.122" height="7.122"/><rect x="806.585" y="432.390" width="7.122" height="7.122"/><rect x="827.951" y="432.390" width="7.122" height="7.122"/><rect x="849.317" y="432.390" width="7.122" height="7.122"/><rect x="856.439" y="432.390" width="7.122" height="7.122"/><rect x="863.561" y="432.390" width="7.122" height="7.122"/><rect x="870.683" y="432.390" width="7.122" height="7.122"/><rect x="884.927" y="432.390" width="7.122" height="7.122"/><rect x="913.415" y="432.390" width="7.122" height="7.122"/><rect x="920.537" y="432.390" width="7.122" height="7.122"/><rect x="927.659" y="432.390" width="7.122" height="7.122"/><rect x="941.902" y="432.390" width="7.122" height="7.122"/><rect x="949.024" y="432.390" width="7.122" height="7.122"/><rect x="956.146" y="432.390" width="7.122" height="7.122"/><rect x="970.390" y="432.390" width="7.122" height="7.122"/></g>
    <text x="860" y="514" text-anchor="middle" font-family="Avenir Next, Helvetica Neue, Arial, sans-serif" font-size="21" font-weight="800" fill="#030303" letter-spacing="1.6">SCAN PORTFOLIO</text>
  </g>

  <g font-family="Avenir Next, Helvetica Neue, Arial, sans-serif" font-size="14" font-weight="800" letter-spacing="2" fill="#48d7df">
    <text x="714" y="104">APPLE WALLET QR CARD</text>
  </g>
</svg>
